<svg xmlns="http://www.w3.org/2000/svg" xmlns:xlink="http://www.w3.org/1999/xlink" width="500" zoomAndPan="magnify" viewBox="0 0 375 374.999991" height="500" preserveAspectRatio="xMidYMid meet" version="1.0"><defs><g/><clipPath id="d3ebb3fb88"><path d="M 107 178 L 136 178 L 136 207 L 107 207 Z M 107 178 " clip-rule="nonzero"/></clipPath><clipPath id="9160ef9203"><path d="M 132.664062 181.140625 C 132.828125 181.140625 132.960938 181.273438 132.960938 181.4375 C 132.960938 181.546875 132.898438 181.648438 132.796875 181.699219 L 129.179688 183.507812 C 125.367188 185.414062 122.960938 189.308594 122.960938 193.570312 L 122.960938 195.492188 C 122.875 195.429688 122.792969 195.371094 122.707031 195.316406 C 121.117188 194.253906 118.992188 193.640625 116.710938 193.640625 C 114.425781 193.640625 112.300781 194.253906 110.714844 195.316406 C 110.628906 195.371094 110.542969 195.429688 110.460938 195.492188 L 110.460938 189.890625 C 110.460938 189.796875 110.460938 189.707031 110.464844 189.617188 L 112.925781 189 C 113.730469 188.796875 114.578125 188.832031 115.367188 189.09375 L 117.566406 189.828125 C 118.21875 190.042969 118.925781 189.691406 119.144531 189.035156 C 119.363281 188.382812 119.011719 187.671875 118.355469 187.453125 L 116.160156 186.722656 C 114.917969 186.308594 113.585938 186.257812 112.316406 186.574219 L 110.980469 186.910156 C 111.820312 184.589844 113.617188 182.726562 115.890625 181.792969 L 116.828125 182.191406 C 118.390625 182.863281 119.507812 184.285156 119.789062 185.96875 L 119.851562 186.347656 C 119.964844 187.027344 120.609375 187.488281 121.289062 187.375 C 121.972656 187.261719 122.429688 186.617188 122.316406 185.933594 L 122.253906 185.554688 C 121.964844 183.820312 121.082031 182.269531 119.789062 181.140625 Z M 107.960938 189.890625 C 107.960938 189.574219 107.972656 189.261719 108 188.949219 L 107.996094 188.945312 C 107.917969 188.628906 107.96875 188.3125 108.109375 188.046875 C 108.992188 182.710938 113.625 178.640625 119.210938 178.640625 L 132.664062 178.640625 C 134.207031 178.640625 135.460938 179.890625 135.460938 181.4375 C 135.460938 182.496094 134.863281 183.460938 133.914062 183.9375 L 130.296875 185.746094 C 127.332031 187.226562 125.460938 190.257812 125.460938 193.570312 L 125.460938 199.890625 C 125.460938 201.820312 124.289062 203.414062 122.707031 204.464844 C 121.117188 205.527344 118.992188 206.140625 116.710938 206.140625 C 114.425781 206.140625 112.300781 205.527344 110.714844 204.464844 C 109.132812 203.414062 107.960938 201.820312 107.960938 199.890625 Z M 122.960938 199.890625 C 122.960938 200.722656 122.453125 201.628906 121.320312 202.386719 C 120.195312 203.136719 118.570312 203.640625 116.710938 203.640625 C 114.851562 203.640625 113.226562 203.136719 112.101562 202.386719 C 110.964844 201.628906 110.460938 200.722656 110.460938 199.890625 C 110.460938 199.058594 110.964844 198.152344 112.101562 197.394531 C 113.226562 196.644531 114.851562 196.140625 116.710938 196.140625 C 118.570312 196.140625 120.195312 196.644531 121.320312 197.394531 C 122.453125 198.152344 122.960938 199.058594 122.960938 199.890625 Z M 122.960938 199.890625 " clip-rule="evenodd"/></clipPath><linearGradient x1="11.558255" gradientTransform="matrix(0, 1.25, -1.25, 0, 136.709809, 177.390606)" y1="-1.159641" x2="16.76755" gradientUnits="userSpaceOnUse" y2="24.30802" id="549eac6ef5"><stop stop-opacity="1" stop-color="rgb(0%, 95.298767%, 62.399292%)" offset="0"/><stop stop-opacity="1" stop-color="rgb(0%, 95.298767%, 62.399292%)" offset="0.0625"/><stop stop-opacity="1" stop-color="rgb(0.0137329%, 95.207214%, 62.371826%)" offset="0.09375"/><stop stop-opacity="1" stop-color="rgb(0.0518799%, 94.955444%, 62.30011%)" offset="0.109375"/><stop stop-opacity="1" stop-color="rgb(0.100708%, 94.63501%, 62.207031%)" offset="0.125"/><stop stop-opacity="1" stop-color="rgb(0.149536%, 94.314575%, 62.115479%)" offset="0.140625"/><stop stop-opacity="1" stop-color="rgb(0.198364%, 93.995667%, 62.023926%)" offset="0.15625"/><stop stop-opacity="1" stop-color="rgb(0.247192%, 93.675232%, 61.930847%)" offset="0.169599"/><stop stop-opacity="1" stop-color="rgb(0.271606%, 93.515015%, 61.885071%)" offset="0.171875"/><stop stop-opacity="1" stop-color="rgb(0.296021%, 93.354797%, 61.839294%)" offset="0.1875"/><stop stop-opacity="1" stop-color="rgb(0.344849%, 93.034363%, 61.746216%)" offset="0.203125"/><stop stop-opacity="1" stop-color="rgb(0.393677%, 92.713928%, 61.654663%)" offset="0.21875"/><stop stop-opacity="1" stop-color="rgb(0.442505%, 92.39502%, 61.561584%)" offset="0.234375"/><stop stop-opacity="1" stop-color="rgb(0.491333%, 92.074585%, 61.470032%)" offset="0.25"/><stop stop-opacity="1" stop-color="rgb(0.540161%, 91.75415%, 61.376953%)" offset="0.265625"/><stop stop-opacity="1" stop-color="rgb(0.588989%, 91.433716%, 61.2854%)" offset="0.28125"/><stop stop-opacity="1" stop-color="rgb(0.637817%, 91.113281%, 61.192322%)" offset="0.296875"/><stop stop-opacity="1" stop-color="rgb(0.686646%, 90.794373%, 61.100769%)" offset="0.3125"/><stop stop-opacity="1" stop-color="rgb(0.735474%, 90.473938%, 61.00769%)" offset="0.328125"/><stop stop-opacity="1" stop-color="rgb(0.784302%, 90.153503%, 60.916138%)" offset="0.34375"/><stop stop-opacity="1" stop-color="rgb(0.83313%, 89.833069%, 60.824585%)" offset="0.359375"/><stop stop-opacity="1" stop-color="rgb(0.881958%, 89.512634%, 60.731506%)" offset="0.375"/><stop stop-opacity="1" stop-color="rgb(0.930786%, 89.1922%, 60.639954%)" offset="0.390625"/><stop stop-opacity="1" stop-color="rgb(0.979614%, 88.873291%, 60.546875%)" offset="0.40625"/><stop stop-opacity="1" stop-color="rgb(1.028442%, 88.552856%, 60.455322%)" offset="0.421875"/><stop stop-opacity="1" stop-color="rgb(1.077271%, 88.232422%, 60.362244%)" offset="0.4375"/><stop stop-opacity="1" stop-color="rgb(1.126099%, 87.911987%, 60.270691%)" offset="0.453125"/><stop stop-opacity="1" stop-color="rgb(1.174927%, 87.591553%, 60.177612%)" offset="0.46875"/><stop stop-opacity="1" stop-color="rgb(1.223755%, 87.272644%, 60.08606%)" offset="0.484375"/><stop stop-opacity="1" stop-color="rgb(1.272583%, 86.952209%, 59.992981%)" offset="0.5"/><stop stop-opacity="1" stop-color="rgb(1.321411%, 86.631775%, 59.901428%)" offset="0.515625"/><stop stop-opacity="1" stop-color="rgb(1.370239%, 86.31134%, 59.809875%)" offset="0.53125"/><stop stop-opacity="1" stop-color="rgb(1.419067%, 85.990906%, 59.716797%)" offset="0.546875"/><stop stop-opacity="1" stop-color="rgb(1.467896%, 85.670471%, 59.625244%)" offset="0.5625"/><stop stop-opacity="1" stop-color="rgb(1.516724%, 85.351562%, 59.532166%)" offset="0.578125"/><stop stop-opacity="1" stop-color="rgb(1.565552%, 85.031128%, 59.440613%)" offset="0.59375"/><stop stop-opacity="1" stop-color="rgb(1.61438%, 84.710693%, 59.347534%)" offset="0.609375"/><stop stop-opacity="1" stop-color="rgb(1.663208%, 84.390259%, 59.255981%)" offset="0.625"/><stop stop-opacity="1" stop-color="rgb(1.712036%, 84.069824%, 59.162903%)" offset="0.640625"/><stop stop-opacity="1" stop-color="rgb(1.760864%, 83.750916%, 59.07135%)" offset="0.65625"/><stop stop-opacity="1" stop-color="rgb(1.809692%, 83.430481%, 58.978271%)" offset="0.671875"/><stop stop-opacity="1" stop-color="rgb(1.858521%, 83.110046%, 58.886719%)" offset="0.6875"/><stop stop-opacity="1" stop-color="rgb(1.907349%, 82.789612%, 58.795166%)" offset="0.703125"/><stop stop-opacity="1" stop-color="rgb(1.956177%, 82.469177%, 58.702087%)" offset="0.71875"/><stop stop-opacity="1" stop-color="rgb(2.005005%, 82.148743%, 58.610535%)" offset="0.734375"/><stop stop-opacity="1" stop-color="rgb(2.053833%, 81.829834%, 58.517456%)" offset="0.75"/><stop stop-opacity="1" stop-color="rgb(2.102661%, 81.509399%, 58.425903%)" offset="0.765625"/><stop stop-opacity="1" stop-color="rgb(2.151489%, 81.188965%, 58.332825%)" offset="0.78125"/><stop stop-opacity="1" stop-color="rgb(2.200317%, 80.86853%, 58.241272%)" offset="0.796875"/><stop stop-opacity="1" stop-color="rgb(2.249146%, 80.548096%, 58.148193%)" offset="0.8125"/><stop stop-opacity="1" stop-color="rgb(2.297974%, 80.229187%, 58.056641%)" offset="0.828125"/><stop stop-opacity="1" stop-color="rgb(2.346802%, 79.908752%, 57.963562%)" offset="0.830401"/><stop stop-opacity="1" stop-color="rgb(2.371216%, 79.748535%, 57.917786%)" offset="0.84375"/><stop stop-opacity="1" stop-color="rgb(2.39563%, 79.588318%, 57.872009%)" offset="0.859375"/><stop stop-opacity="1" stop-color="rgb(2.444458%, 79.267883%, 57.780457%)" offset="0.875"/><stop stop-opacity="1" stop-color="rgb(2.493286%, 78.947449%, 57.687378%)" offset="0.890625"/><stop stop-opacity="1" stop-color="rgb(2.542114%, 78.627014%, 57.595825%)" offset="0.90625"/><stop stop-opacity="1" stop-color="rgb(2.590942%, 78.308105%, 57.502747%)" offset="0.921875"/><stop stop-opacity="1" stop-color="rgb(2.639771%, 77.987671%, 57.411194%)" offset="0.9375"/><stop stop-opacity="1" stop-color="rgb(2.680969%, 77.713013%, 57.331848%)" offset="1"/></linearGradient></defs><g clip-path="url(#d3ebb3fb88)"><g clip-path="url(#9160ef9203)"><path fill="url(#549eac6ef5)" d="M 135.460938 178.640625 L 107.917969 178.640625 L 107.917969 206.140625 L 135.460938 206.140625 Z M 135.460938 178.640625 " fill-rule="nonzero"/></g></g><g fill="#000000" fill-opacity="1"><g transform="translate(42.092627, 206.624986)"><g><path d="M 16.4375 0.515625 C 13.738281 0.515625 11.335938 -0.125 9.234375 -1.40625 C 7.140625 -2.6875 5.492188 -4.460938 4.296875 -6.734375 C 3.097656 -9.003906 2.5 -11.597656 2.5 -14.515625 C 2.5 -17.359375 3.085938 -19.890625 4.265625 -22.109375 C 5.441406 -24.328125 7.078125 -26.078125 9.171875 -27.359375 C 11.273438 -28.648438 13.695312 -29.296875 16.4375 -29.296875 C 19.664062 -29.296875 22.398438 -28.460938 24.640625 -26.796875 C 26.878906 -25.128906 28.328125 -22.910156 28.984375 -20.140625 L 24.25 -20.140625 C 23.695312 -21.765625 22.71875 -23.046875 21.3125 -23.984375 C 19.90625 -24.921875 18.28125 -25.390625 16.4375 -25.390625 C 14.632812 -25.390625 13.015625 -24.921875 11.578125 -23.984375 C 10.140625 -23.046875 9.003906 -21.757812 8.171875 -20.125 C 7.335938 -18.5 6.921875 -16.628906 6.921875 -14.515625 C 6.921875 -12.328125 7.335938 -10.398438 8.171875 -8.734375 C 9.003906 -7.078125 10.140625 -5.769531 11.578125 -4.8125 C 13.015625 -3.851562 14.632812 -3.375 16.4375 -3.375 C 18.445312 -3.375 20.171875 -3.910156 21.609375 -4.984375 C 23.054688 -6.066406 24.003906 -7.492188 24.453125 -9.265625 L 29.1875 -9.265625 C 28.5625 -6.210938 27.085938 -3.816406 24.765625 -2.078125 C 22.441406 -0.347656 19.664062 0.515625 16.4375 0.515625 Z M 16.4375 0.515625 "/></g></g></g><g fill="#000000" fill-opacity="1"><g transform="translate(73.408353, 206.624986)"><g><path d="M 16.546875 0.515625 C 13.804688 0.515625 11.378906 -0.125 9.265625 -1.40625 C 7.148438 -2.6875 5.492188 -4.460938 4.296875 -6.734375 C 3.097656 -9.003906 2.5 -11.597656 2.5 -14.515625 C 2.5 -17.359375 3.097656 -19.890625 4.296875 -22.109375 C 5.492188 -24.328125 7.148438 -26.078125 9.265625 -27.359375 C 11.378906 -28.648438 13.804688 -29.296875 16.546875 -29.296875 C 19.285156 -29.296875 21.722656 -28.648438 23.859375 -27.359375 C 25.992188 -26.078125 27.664062 -24.328125 28.875 -22.109375 C 30.09375 -19.890625 30.703125 -17.359375 30.703125 -14.515625 C 30.703125 -11.640625 30.101562 -9.0625 28.90625 -6.78125 C 27.707031 -4.507812 26.039062 -2.722656 23.90625 -1.421875 C 21.769531 -0.128906 19.316406 0.515625 16.546875 0.515625 Z M 16.546875 -3.375 C 18.378906 -3.375 20.023438 -3.859375 21.484375 -4.828125 C 22.941406 -5.804688 24.09375 -7.132812 24.9375 -8.8125 C 25.789062 -10.5 26.21875 -12.398438 26.21875 -14.515625 C 26.21875 -16.566406 25.800781 -18.414062 24.96875 -20.0625 C 24.132812 -21.707031 22.988281 -23.003906 21.53125 -23.953125 C 20.082031 -24.910156 18.421875 -25.390625 16.546875 -25.390625 C 14.703125 -25.390625 13.050781 -24.921875 11.59375 -23.984375 C 10.144531 -23.046875 9.003906 -21.753906 8.171875 -20.109375 C 7.335938 -18.460938 6.921875 -16.597656 6.921875 -14.515625 C 6.921875 -12.367188 7.34375 -10.453125 8.1875 -8.765625 C 9.039062 -7.085938 10.195312 -5.769531 11.65625 -4.8125 C 13.113281 -3.851562 14.742188 -3.375 16.546875 -3.375 Z M 16.546875 -3.375 "/></g></g></g><g fill="#000000" fill-opacity="1"><g transform="translate(162.29409, 207.412222)"><g><path d="M 13.515625 0.53125 C 9.460938 0.53125 6.617188 -0.988281 4.984375 -4.03125 C 4.066406 -5.738281 3.609375 -8.238281 3.609375 -11.53125 L 3.609375 -28.96875 L 8.0625 -28.96875 L 8.0625 -11.53125 C 8.0625 -8.457031 8.625 -6.289062 9.75 -5.03125 C 10.726562 -3.945312 12.210938 -3.40625 14.203125 -3.40625 C 16.398438 -3.40625 18.160156 -4.117188 19.484375 -5.546875 C 20.429688 -6.566406 21.101562 -7.921875 21.5 -9.609375 C 21.90625 -11.304688 22.109375 -13.640625 22.109375 -16.609375 L 22.109375 -28.96875 L 26.5625 -28.96875 L 26.5625 0 L 22.109375 0 L 22.109375 -4.5 C 20.710938 -2.71875 19.34375 -1.429688 18 -0.640625 C 16.65625 0.140625 15.160156 0.53125 13.515625 0.53125 Z M 13.515625 0.53125 "/></g></g></g><g fill="#000000" fill-opacity="1"><g transform="translate(192.578084, 207.412222)"><g><path d="M 16.5625 0.53125 C 13.832031 0.53125 11.410156 -0.113281 9.296875 -1.40625 C 7.179688 -2.707031 5.519531 -4.5 4.3125 -6.78125 C 3.113281 -9.070312 2.515625 -11.679688 2.515625 -14.609375 C 2.515625 -17.472656 3.109375 -20.023438 4.296875 -22.265625 C 5.484375 -24.503906 7.132812 -26.269531 9.25 -27.5625 C 11.363281 -28.851562 13.800781 -29.5 16.5625 -29.5 C 19.800781 -29.5 22.546875 -28.660156 24.796875 -26.984375 C 27.054688 -25.304688 28.519531 -23.070312 29.1875 -20.28125 L 24.40625 -20.28125 C 23.851562 -21.914062 22.867188 -23.203125 21.453125 -24.140625 C 20.035156 -25.085938 18.40625 -25.5625 16.5625 -25.5625 C 14.738281 -25.5625 13.101562 -25.085938 11.65625 -24.140625 C 10.207031 -23.203125 9.0625 -21.910156 8.21875 -20.265625 C 7.382812 -18.628906 6.96875 -16.742188 6.96875 -14.609375 C 6.96875 -12.410156 7.382812 -10.472656 8.21875 -8.796875 C 9.0625 -7.117188 10.207031 -5.800781 11.65625 -4.84375 C 13.101562 -3.882812 14.738281 -3.40625 16.5625 -3.40625 C 18.582031 -3.40625 20.316406 -3.945312 21.765625 -5.03125 C 23.210938 -6.113281 24.164062 -7.546875 24.625 -9.328125 L 29.390625 -9.328125 C 28.765625 -6.253906 27.28125 -3.84375 24.9375 -2.09375 C 22.59375 -0.34375 19.800781 0.53125 16.5625 0.53125 Z M 16.5625 0.53125 "/></g></g></g><g fill="#000000" fill-opacity="1"><g transform="translate(224.119545, 207.412222)"><g><path d="M 16.65625 0.53125 C 13.894531 0.53125 11.445312 -0.113281 9.3125 -1.40625 C 7.1875 -2.707031 5.519531 -4.5 4.3125 -6.78125 C 3.113281 -9.070312 2.515625 -11.679688 2.515625 -14.609375 C 2.515625 -17.472656 3.113281 -20.023438 4.3125 -22.265625 C 5.519531 -24.503906 7.1875 -26.269531 9.3125 -27.5625 C 11.445312 -28.851562 13.894531 -29.5 16.65625 -29.5 C 19.414062 -29.5 21.867188 -28.851562 24.015625 -27.5625 C 26.171875 -26.269531 27.859375 -24.503906 29.078125 -22.265625 C 30.296875 -20.023438 30.90625 -17.472656 30.90625 -14.609375 C 30.90625 -11.710938 30.300781 -9.117188 29.09375 -6.828125 C 27.894531 -4.546875 26.21875 -2.75 24.0625 -1.4375 C 21.914062 -0.125 19.445312 0.53125 16.65625 0.53125 Z M 16.65625 -3.40625 C 18.507812 -3.40625 20.171875 -3.894531 21.640625 -4.875 C 23.109375 -5.851562 24.269531 -7.1875 25.125 -8.875 C 25.976562 -10.570312 26.40625 -12.484375 26.40625 -14.609375 C 26.40625 -16.671875 25.984375 -18.53125 25.140625 -20.1875 C 24.304688 -21.851562 23.15625 -23.164062 21.6875 -24.125 C 20.21875 -25.082031 18.539062 -25.5625 16.65625 -25.5625 C 14.8125 -25.5625 13.15625 -25.085938 11.6875 -24.140625 C 10.21875 -23.203125 9.0625 -21.90625 8.21875 -20.25 C 7.382812 -18.59375 6.96875 -16.710938 6.96875 -14.609375 C 6.96875 -12.453125 7.394531 -10.523438 8.25 -8.828125 C 9.101562 -7.128906 10.265625 -5.800781 11.734375 -4.84375 C 13.203125 -3.882812 14.84375 -3.40625 16.65625 -3.40625 Z M 16.65625 -3.40625 "/></g></g></g><g fill="#000000" fill-opacity="1"><g transform="translate(257.599599, 207.412222)"><g><path d="M 17.703125 -29.5 C 20.328125 -29.5 22.597656 -28.859375 24.515625 -27.578125 C 26.441406 -26.304688 27.9375 -24.550781 29 -22.3125 C 30.0625 -20.082031 30.59375 -17.484375 30.59375 -14.515625 C 30.59375 -11.546875 30.0625 -8.929688 29 -6.671875 C 27.9375 -4.421875 26.441406 -2.65625 24.515625 -1.375 C 22.597656 -0.101562 20.328125 0.53125 17.703125 0.53125 C 15.785156 0.53125 14.101562 0.171875 12.65625 -0.546875 C 11.207031 -1.265625 9.726562 -2.582031 8.21875 -4.5 L 8.21875 11 L 3.765625 11 L 3.765625 -28.96875 L 8.21875 -28.96875 L 8.21875 -24.46875 C 9.6875 -26.351562 11.132812 -27.660156 12.5625 -28.390625 C 14 -29.128906 15.710938 -29.5 17.703125 -29.5 Z M 17.28125 -25.5625 C 15.5 -25.5625 13.910156 -25.082031 12.515625 -24.125 C 11.117188 -23.164062 10.023438 -21.851562 9.234375 -20.1875 C 8.453125 -18.53125 8.0625 -16.640625 8.0625 -14.515625 C 8.0625 -12.378906 8.453125 -10.472656 9.234375 -8.796875 C 10.023438 -7.117188 11.117188 -5.800781 12.515625 -4.84375 C 13.910156 -3.882812 15.5 -3.40625 17.28125 -3.40625 C 19.101562 -3.40625 20.675781 -3.894531 22 -4.875 C 23.332031 -5.851562 24.351562 -7.179688 25.0625 -8.859375 C 25.78125 -10.535156 26.140625 -12.421875 26.140625 -14.515625 C 26.140625 -16.609375 25.78125 -18.484375 25.0625 -20.140625 C 24.351562 -21.796875 23.332031 -23.113281 22 -24.09375 C 20.675781 -25.070312 19.101562 -25.5625 17.28125 -25.5625 Z M 17.28125 -25.5625 "/></g></g></g><g fill="#000000" fill-opacity="1"><g transform="translate(290.817675, 207.412222)"><g><path d="M 5.96875 -33.953125 C 5.03125 -33.953125 4.226562 -34.273438 3.5625 -34.921875 C 2.894531 -35.566406 2.5625 -36.34375 2.5625 -37.25 C 2.5625 -38.15625 2.894531 -38.921875 3.5625 -39.546875 C 4.226562 -40.179688 5.03125 -40.5 5.96875 -40.5 C 6.914062 -40.5 7.71875 -40.179688 8.375 -39.546875 C 9.039062 -38.921875 9.375 -38.15625 9.375 -37.25 C 9.375 -36.34375 9.039062 -35.566406 8.375 -34.921875 C 7.71875 -34.273438 6.914062 -33.953125 5.96875 -33.953125 Z M 8.171875 0 L 3.71875 0 L 3.71875 -28.96875 L 8.171875 -28.96875 Z M 8.171875 0 "/></g></g></g><g fill="#000000" fill-opacity="1"><g transform="translate(302.71121, 207.412222)"><g><path d="M 11.9375 0.53125 C 9.039062 0.53125 6.742188 -0.203125 5.046875 -1.671875 C 3.359375 -3.140625 2.515625 -5.148438 2.515625 -7.703125 C 2.515625 -10.210938 3.457031 -12.203125 5.34375 -13.671875 C 6.882812 -14.890625 9.101562 -15.796875 12 -16.390625 L 22.3125 -18.390625 C 22.3125 -20.660156 21.71875 -22.390625 20.53125 -23.578125 C 19.207031 -24.898438 17.425781 -25.5625 15.1875 -25.5625 C 13.40625 -25.5625 11.859375 -25.085938 10.546875 -24.140625 C 9.242188 -23.203125 8.414062 -21.914062 8.0625 -20.28125 L 3.609375 -20.28125 C 3.960938 -22.300781 4.707031 -23.992188 5.84375 -25.359375 C 6.976562 -26.722656 8.363281 -27.753906 10 -28.453125 C 11.644531 -29.148438 13.394531 -29.5 15.25 -29.5 C 16.925781 -29.5 18.503906 -29.253906 19.984375 -28.765625 C 21.472656 -28.273438 22.722656 -27.523438 23.734375 -26.515625 C 24.742188 -25.535156 25.457031 -24.429688 25.875 -23.203125 C 26.300781 -21.984375 26.554688 -20.820312 26.640625 -19.71875 C 26.722656 -18.625 26.765625 -17.742188 26.765625 -17.078125 L 26.765625 0 L 22.3125 0 L 22.3125 -4.5625 C 21.300781 -3.09375 20.132812 -1.957031 18.8125 -1.15625 C 17.832031 -0.5625 16.773438 -0.132812 15.640625 0.125 C 14.503906 0.394531 13.269531 0.53125 11.9375 0.53125 Z M 12.46875 -3.40625 C 14.25 -3.40625 15.785156 -3.738281 17.078125 -4.40625 C 19.140625 -5.488281 20.535156 -6.882812 21.265625 -8.59375 C 22.003906 -10.300781 22.375 -12.363281 22.375 -14.78125 L 12.9375 -12.890625 C 10.769531 -12.472656 9.179688 -11.789062 8.171875 -10.84375 C 7.367188 -10.039062 6.96875 -9.03125 6.96875 -7.8125 C 6.96875 -6.476562 7.460938 -5.410156 8.453125 -4.609375 C 9.453125 -3.804688 10.789062 -3.40625 12.46875 -3.40625 Z M 12.46875 -3.40625 "/></g></g></g><g fill="#000000" fill-opacity="1"><g transform="translate(136.714301, 206.624986)"><g><path d="M 8.109375 0 L 3.6875 0 L 3.6875 -28.765625 L 8.109375 -28.765625 L 8.109375 -24.296875 C 9.566406 -26.171875 10.960938 -27.472656 12.296875 -28.203125 C 13.640625 -28.929688 15.09375 -29.296875 16.65625 -29.296875 C 18.90625 -29.296875 20.707031 -28.867188 22.0625 -28.015625 C 23.414062 -27.171875 24.4375 -26.085938 25.125 -24.765625 C 25.820312 -23.484375 26.222656 -22.144531 26.328125 -20.75 C 26.429688 -19.363281 26.484375 -18.222656 26.484375 -17.328125 L 26.484375 0 L 22.0625 0 L 22.0625 -17.328125 C 22.0625 -20.378906 21.503906 -22.53125 20.390625 -23.78125 C 19.421875 -24.851562 17.945312 -25.390625 15.96875 -25.390625 C 14.789062 -25.390625 13.769531 -25.195312 12.90625 -24.8125 C 12.039062 -24.4375 11.3125 -23.921875 10.71875 -23.265625 C 9.78125 -22.285156 9.109375 -20.945312 8.703125 -19.25 C 8.304688 -17.550781 8.109375 -15.226562 8.109375 -12.28125 Z M 8.109375 0 "/></g></g></g></svg>